<?xml version="1.0" encoding="utf-8"?>
<!-- Generator: Adobe Illustrator 23.0.1, SVG Export Plug-In . SVG Version: 6.00 Build 0)  -->
<svg version="1.1" id="master-artboard" xmlns="http://www.w3.org/2000/svg" xmlns:xlink="http://www.w3.org/1999/xlink" x="0px"
	 y="0px" viewBox="0 0 1400 980" style="enable-background:new 0 0 1400 980;" xml:space="preserve">
<style type="text/css">
	.st0{fill:#FFFFFF;}
	.st1{fill:#FFFFFF;enable-background:new    ;}
	.st2{fill:#3F3D3D;}
	.st3{fill:#3F3D3D;enable-background:new    ;}
</style>
<rect id="ee-background" x="3.5" class="st0" width="1400" height="980"/>
<path class="st1" d="M0,0"/>
<path class="st1" d="M0,0"/>
<path class="st2" d="M880.4,239.9"/>
<path class="st2" d="M864.1,229.5"/>
<path class="st3" d="M0,0"/>
<path class="st3" d="M0,0"/>
<path class="st3" d="M0,0"/>
<path class="st3" d="M0,0"/>
<g transform="matrix(13.2075460182046, 0, 0, 13.2075460182046, 0, 206.03779769879912)">
	<path d="M100.2,7.3c-1.5-1.3-1.6-1.1-1.1,2.1c1.3,7.2-4.9,11-10.1,6.3c-1.2-1.1-6.1-5.1-9.7-8C73.5,2.8,64.5,2.4,58,6.8
		c-1.8,1.2-4.7,2.7-4.7,2.5c0,0.2-2.9-1.3-4.7-2.5c-6.5-4.4-15.5-4-21.4,0.9c-3.5,3-8.4,7-9.7,8c-5.3,4.7-11.5,0.9-10.1-6.3
		C8,6.2,7.9,6,6.3,7.3C1.8,11.1,1,19.8,4.6,27.1c5.3,10.6,17.4,16.4,28.8,13.7c4.6-1.1,9.5-3.9,15.9-9l3.9-3.4l3.9,3.4
		c6.4,5.1,11.3,7.9,15.9,9c11.4,2.7,23.6-3.1,28.8-13.7C105.5,19.8,104.8,11.1,100.2,7.3z"/>
</g>
</svg>
