<?xml version="1.0" encoding="utf-8"?>
<!-- Generator: Adobe Illustrator 23.0.1, SVG Export Plug-In . SVG Version: 6.00 Build 0)  -->
<svg version="1.1" id="master-artboard" xmlns="http://www.w3.org/2000/svg" xmlns:xlink="http://www.w3.org/1999/xlink" x="0px"
	 y="0px" viewBox="0 0 1400 980" style="enable-background:new 0 0 1400 980;" xml:space="preserve">
<g transform="matrix(13.2075460182046, 0, 0, 13.2075460182046, 0, 206.03779769879912)">
	<path d="M100.7,4.7c-1.5-1.3-1.6-1.1-1.1,2.1c1.3,7.2-4.9,11-10.1,6.3c-1.2-1.1-6.1-5.1-9.7-8c-5.8-4.9-14.8-5.3-21.4-0.9
		c-1.8,1.2-4.7,2.7-4.7,2.5c0,0.2-2.9-1.3-4.7-2.5c-6.5-4.4-15.5-4-21.4,0.9c-3.5,3-8.4,7-9.7,8C12.8,17.9,6.5,14,7.9,6.8
		c0.6-3.3,0.5-3.4-1.1-2.1C2.2,8.6,1.5,17.2,5.1,24.6c5.3,10.6,17.4,16.4,28.8,13.7c4.6-1.1,9.5-3.9,15.9-9l3.9-3.4l3.9,3.4
		c6.4,5.1,11.3,7.9,15.9,9c11.4,2.7,23.6-3.1,28.8-13.7C106,17.2,105.3,8.6,100.7,4.7z"/>
</g>
</svg>
