<?xml version="1.0" encoding="utf-8"?>
<svg id="master-artboard" viewBox="0 0 1400 980" version="1.1" xmlns="http://www.w3.org/2000/svg" x="0px" y="0px" style="enable-background:new 0 0 1400 980;" width="1400px" height="980px"><defs><style id="ee-google-fonts">@import url(https://fonts.googleapis.com/css?family=Anton:400|Roboto+Slab:100,300,400,700);</style><path id="text-path-0" d="M 778.8464965820312 213.4612274169922 A 100 18 0 0 1 988.3533935546875 213.4612274169922 A 100 18 0 0 1 778.8464965820312 213.4612274169922 Z" style="fill: none; stroke: red; stroke-width: 2;"/><path id="text-path-1" d="M 664.5464477539062 37.96122741699219 A 100 19 0 0 1 876.5812377929688 37.96122741699219 A 100 19 0 0 1 664.5464477539062 37.96122741699219" style="fill: none; stroke: red; stroke-width: 2;"/><path id="text-path-2" d="M 765.3650512695312 211.70851135253906 A 100 17 0 0 1 991.5017700195312 211.70851135253906 A 100 17 0 0 1 765.3650512695312 211.70851135253906" style="fill: none; stroke: red; stroke-width: 2;"/><path id="path-1" d="M 765.3650512695312 211.70851135253906 A 100 17 0 0 1 991.5017700195312 211.70851135253906 A 100 17 0 0 1 765.3650512695312 211.70851135253906" style="fill: none; stroke: red; stroke-width: 2;"/></defs><rect id="ee-background" x="0" y="0" width="1400" height="980" style="fill: white; fill-opacity: 1; pointer-events: none;"/>


<path style="fill: rgb(63, 61, 61); fill-opacity: 1; stroke: rgb(0, 0, 0); stroke-opacity: 1; stroke-width: 0; paint-order: fill;"/><path style="fill: rgb(63, 61, 61); fill-opacity: 1; stroke: rgb(0, 0, 0); stroke-opacity: 1; stroke-width: 0; paint-order: fill;"/><path d="M 880.3870239257812 239.90606689453125" style="fill: rgb(63, 61, 61); fill-opacity: 1; stroke: rgb(0, 0, 0); stroke-opacity: 1; stroke-width: 0; paint-order: fill;"/><path d="M 864.144775390625 229.48651123046875" style="fill: rgb(63, 61, 61); fill-opacity: 1; stroke: rgb(0, 0, 0); stroke-opacity: 1; stroke-width: 0; paint-order: fill;"/><path style="fill: rgb(63, 61, 61); fill-opacity: 1; stroke: rgb(0, 0, 0); stroke-opacity: 1; stroke-width: 0; paint-order: fill;"/><path style="fill: rgb(63, 61, 61); fill-opacity: 1; stroke: rgb(0, 0, 0); stroke-opacity: 1; stroke-width: 0; paint-order: fill;"/><path style="fill: rgb(63, 61, 61); fill-opacity: 1; stroke: rgb(0, 0, 0); stroke-opacity: 1; stroke-width: 0; paint-order: fill;"/><path style="fill: rgb(63, 61, 61); fill-opacity: 1; stroke: rgb(0, 0, 0); stroke-opacity: 1; stroke-width: 0; paint-order: fill;"/><g transform="matrix(13.2075460182046, 0, 0, 13.2075460182046, 0, 206.03779769879912)"><metadata>
Created by potrace 1.15, written by Peter Selinger 2001-2017
</metadata><g transform="translate(0.000000,43.000000) scale(0.100000,-0.100000)" fill="#000000" stroke="none">
<path d="M 50.166786193847656 374.3343505859375 C 16.166786193847656 337.3343505859375 -3.691920042037964 257.0320129394531 23.60912322998047 190.0103302001953 C 83.15045982750112 43.841536152664474 230.34141540527344 18.495180130004883 320.08734130859375 35.85380172729492 C 367.59893798828125 45.04347229003906 416.5390930175781 66.7312240600586 465 101 L 522 141 L 557 113 C 624 60 675 31 723 19 C 842 -9 969 51 1024 162 C 1062 239 1054 329 1006 369 C 990 383 989 381 995 347 C 1009 272 944 232 889 281 C 876 292 825 334 788 365 C 727 416 633 420 565 374 C 546 361 529 353 529 355 C 524.3288217366718 354.32882179321774 549.2617025675412 342.325331658021 494.46221923828125 375.5258483886719 C 428.4110107421875 415.54327392578125 339.7727324376494 435.2904507631267 267.1744384765625 377.35992431640625 C 224.22781372070312 343.0902404785156 173.06925733873072 285.8714079040442 146.7277069091797 279.1092224121094 C 69.69033813476562 259.33282470703125 59.822425842285156 332.70257568359375 65.16678619384766 355.3343505859375 C 74.6727523803711 395.5893249511719 76.16678619384766 403.3343505859375 50.166786193847656 374.3343505859375 Z" transform="matrix(1.0025897026062012, 0, 0, 1.0025897026062012, 1.910492181777954, -3.817211105813385)"/>
<path d="M 143.3389892578125 236.01580810546875" style="fill: rgb(0, 0, 0); fill-opacity: 1; stroke: rgb(0, 0, 0); stroke-opacity: 1; stroke-width: 0; paint-order: fill;" transform="matrix(1.002589733376327, 0, 0, 1.002589733376327, 1.9105177484739215, -3.8172085956252886)"/><path d="M 361.2747497558594 175.47727966308594 L 361.2747497558594 175.47727966308594" style="fill: rgb(0, 0, 0); fill-opacity: 1; stroke: rgb(0, 0, 0); stroke-opacity: 1; stroke-width: 0; paint-order: fill;" transform="matrix(1.002589733376327, 0, 0, 1.002589733376327, 1.9105177484739215, -3.8172085956252886)"/><path style="fill: rgb(0, 0, 0); fill-opacity: 1; stroke: rgb(0, 0, 0); stroke-opacity: 1; stroke-width: 0; paint-order: fill;"/><path style="fill: rgb(0, 0, 0); fill-opacity: 1; stroke: rgb(0, 0, 0); stroke-opacity: 1; stroke-width: 0; paint-order: fill;"/><path d="M 364.8656921386719 265.2591552734375" style="fill: rgb(0, 0, 0); fill-opacity: 1; stroke: rgb(0, 0, 0); stroke-opacity: 1; stroke-width: 0; paint-order: fill;"/></g></g></svg>